<svg width="28" height="28" viewBox="0 0 28 28" fill="none" xmlns="http://www.w3.org/2000/svg">
<path d="M24.0488 12.8626C24.0406 12.1243 24.0379 11.3806 24.0352 10.6396H21.8258C21.8176 11.3779 21.8121 12.1189 21.8066 12.8626C21.0629 12.8654 20.3246 12.8708 19.5863 12.879V15.0911C20.3246 15.0993 21.0684 15.1048 21.8066 15.113C21.8148 15.8513 21.8148 16.5923 21.8203 17.3306H24.0324C24.0352 16.5923 24.0406 15.8513 24.0461 15.1075C24.7899 15.0993 25.5281 15.0966 26.2664 15.0884V12.8763C25.5309 12.8708 24.7871 12.8708 24.0488 12.8626ZM9.55665 12.8736C9.55391 13.7568 9.55665 14.6427 9.55938 15.5259C11.0414 15.5751 12.5262 15.5532 14.0082 15.5751C13.3547 18.8646 8.88399 19.931 6.51876 17.7818C4.08516 15.8978 4.20001 11.7661 6.7293 10.0161C8.49844 8.6052 11.0113 8.95247 12.7805 10.1747C13.475 9.53216 14.1258 8.84309 14.752 8.13216C13.2809 6.95911 11.4762 6.12239 9.55665 6.20989C5.54805 6.07591 1.86485 9.58684 1.79922 13.5982C1.54219 16.8767 3.69688 20.0896 6.73751 21.249C9.76719 22.4165 13.6527 21.6208 15.5887 18.8974C16.8656 17.1775 17.1418 14.9626 16.9914 12.8818C14.5113 12.8626 12.034 12.8654 9.55665 12.8736Z" fill="white"/>
</svg>
