<svg width="33" height="33" viewBox="0 0 33 33" fill="none" xmlns="http://www.w3.org/2000/svg">
<path d="M18.4433 31.1666H5.40833C5.06319 31.1776 4.71935 31.1192 4.39725 30.9947C4.07515 30.8702 3.78137 30.6822 3.53338 30.4419C3.28538 30.2016 3.08823 29.9139 2.95366 29.5959C2.81908 29.2779 2.74982 28.9361 2.75 28.5907V4.4549C2.77627 3.75134 3.08057 3.08693 3.59612 2.60747C4.11168 2.128 4.79639 1.87263 5.5 1.8974H18.535C18.8725 1.88984 19.208 1.95089 19.5212 2.07686C19.8344 2.20283 20.1188 2.39109 20.3571 2.63022C20.5953 2.86936 20.7826 3.15439 20.9074 3.46804C21.0323 3.78169 21.0921 4.11743 21.0833 4.4549V28.5907C21.0822 28.9341 21.0127 29.2738 20.8788 29.59C20.7449 29.9062 20.5494 30.1926 20.3036 30.4324C20.0578 30.6722 19.7667 30.8606 19.4473 30.9867C19.1279 31.1127 18.7866 31.1739 18.4433 31.1666ZM5.40833 3.66657C5.30208 3.66289 5.19617 3.6805 5.09682 3.71836C4.99747 3.75622 4.90669 3.81356 4.82983 3.887C4.75296 3.96045 4.69156 4.04853 4.64923 4.14606C4.6069 4.24358 4.58449 4.34859 4.58333 4.4549V28.5907C4.58333 28.8022 4.66736 29.0051 4.81692 29.1547C4.96648 29.3042 5.16932 29.3882 5.38083 29.3882H18.4433C18.6627 29.3912 18.875 29.3103 19.0368 29.1621C19.1987 29.0139 19.2978 28.8096 19.3142 28.5907V4.4549C19.2956 4.23772 19.1955 4.03563 19.0339 3.88935C18.8723 3.74306 18.6613 3.66346 18.4433 3.66657H5.40833Z" fill="#A1A2B0"/>
<path d="M27.0691 31.1667C26.6455 31.1704 26.2253 31.0901 25.8329 30.9305C25.4405 30.7709 25.0835 30.5351 24.7827 30.2368C24.4819 29.9385 24.2431 29.5836 24.0801 29.1926C23.9172 28.8015 23.8333 28.3821 23.8333 27.9584V21.0834C23.8333 20.5972 23.6401 20.1309 23.2963 19.7871C22.9525 19.4432 22.4862 19.2501 22 19.2501H20.6891C20.446 19.2501 20.2129 19.1535 20.0409 18.9816C19.869 18.8097 19.7725 18.5765 19.7725 18.3334C19.7725 18.0903 19.869 17.8571 20.0409 17.6852C20.2129 17.5133 20.446 17.4167 20.6891 17.4167H22C22.9724 17.4167 23.9051 17.8031 24.5927 18.4907C25.2803 19.1783 25.6666 20.111 25.6666 21.0834V27.9584C25.6666 28.3231 25.8115 28.6728 26.0694 28.9307C26.3272 29.1885 26.677 29.3334 27.0416 29.3334C27.4063 29.3334 27.756 29.1885 28.0139 28.9307C28.2718 28.6728 28.4166 28.3231 28.4166 27.9584V15.8584L25.5475 9.44175C25.376 9.08417 25.1068 8.78247 24.771 8.57157C24.4352 8.36067 24.0465 8.24921 23.65 8.25008H22.9808C22.7377 8.25008 22.5045 8.1535 22.3326 7.9816C22.1607 7.80969 22.0641 7.57653 22.0641 7.33342C22.0641 7.0903 22.1607 6.85714 22.3326 6.68523C22.5045 6.51333 22.7377 6.41675 22.9808 6.41675H23.65C24.4121 6.41636 25.1581 6.63695 25.7975 7.05182C26.4369 7.46669 26.9423 8.05804 27.2525 8.75425L30.195 15.3176C30.2487 15.4356 30.2769 15.5637 30.2775 15.6934V27.9584C30.2775 28.8093 29.9394 29.6254 29.3378 30.227C28.7361 30.8287 27.92 31.1667 27.0691 31.1667Z" fill="#A1A2B0"/>
<path d="M16.5 8.25008H7.33335C7.09024 8.25008 6.85708 8.1535 6.68517 7.9816C6.51326 7.80969 6.41669 7.57653 6.41669 7.33341C6.41669 7.0903 6.51326 6.85714 6.68517 6.68523C6.85708 6.51333 7.09024 6.41675 7.33335 6.41675H16.5C16.7431 6.41675 16.9763 6.51333 17.1482 6.68523C17.3201 6.85714 17.4167 7.0903 17.4167 7.33341C17.4167 7.57653 17.3201 7.80969 17.1482 7.9816C16.9763 8.1535 16.7431 8.25008 16.5 8.25008Z" fill="#A1A2B0"/>
<path d="M16.5 11.9166H7.33335C7.09024 11.9166 6.85708 11.82 6.68517 11.6481C6.51326 11.4762 6.41669 11.243 6.41669 10.9999C6.41669 10.7568 6.51326 10.5236 6.68517 10.3517C6.85708 10.1798 7.09024 10.0833 7.33335 10.0833H16.5C16.7431 10.0833 16.9763 10.1798 17.1482 10.3517C17.3201 10.5236 17.4167 10.7568 17.4167 10.9999C17.4167 11.243 17.3201 11.4762 17.1482 11.6481C16.9763 11.82 16.7431 11.9166 16.5 11.9166Z" fill="#A1A2B0"/>
<path d="M22.9167 11.0733C22.6736 11.0733 22.4404 10.9767 22.2685 10.8048C22.0966 10.6329 22 10.3998 22 10.1567V4.65666C22 4.41354 22.0966 4.18038 22.2685 4.00848C22.4404 3.83657 22.6736 3.73999 22.9167 3.73999C23.1598 3.73999 23.3929 3.83657 23.5648 4.00848C23.7368 4.18038 23.8333 4.41354 23.8333 4.65666V10.1567C23.8333 10.3998 23.7368 10.6329 23.5648 10.8048C23.3929 10.9767 23.1598 11.0733 22.9167 11.0733Z" fill="#A1A2B0"/>
</svg>
