<svg width="33" height="33" viewBox="0 0 33 33" fill="none" xmlns="http://www.w3.org/2000/svg">
<path d="M22 5.5H24.75C25.4793 5.5 26.1788 5.78973 26.6945 6.30546C27.2103 6.82118 27.5 7.52065 27.5 8.25V27.5C27.5 28.2293 27.2103 28.9288 26.6945 29.4445C26.1788 29.9603 25.4793 30.25 24.75 30.25H8.25C7.52065 30.25 6.82118 29.9603 6.30546 29.4445C5.78973 28.9288 5.5 28.2293 5.5 27.5V8.25C5.5 7.52065 5.78973 6.82118 6.30546 6.30546C6.82118 5.78973 7.52065 5.5 8.25 5.5H11" stroke="#A1A2B0" stroke-width="2" stroke-linecap="round" stroke-linejoin="round"/>
<path d="M20.625 2.75H12.375C12.0103 2.75 11.6606 2.89487 11.4027 3.15273C11.1449 3.41059 11 3.76033 11 4.125V6.875C11 7.23967 11.1449 7.58941 11.4027 7.84727C11.6606 8.10513 12.0103 8.25 12.375 8.25H20.625C20.9897 8.25 21.3394 8.10513 21.5973 7.84727C21.8551 7.58941 22 7.23967 22 6.875V4.125C22 3.76033 21.8551 3.41059 21.5973 3.15273C21.3394 2.89487 20.9897 2.75 20.625 2.75V2.75Z" stroke="#A1A2B0" stroke-width="2" stroke-linecap="round" stroke-linejoin="round"/>
<path d="M16.5 15.125H22" stroke="#A1A2B0" stroke-width="2" stroke-linecap="round" stroke-linejoin="round"/>
<path d="M16.5 22H22" stroke="#A1A2B0" stroke-width="2" stroke-linecap="round" stroke-linejoin="round"/>
<path d="M11 15.125H11.0146" stroke="#A1A2B0" stroke-width="2" stroke-linecap="round" stroke-linejoin="round"/>
<path d="M11 22H11.0146" stroke="#A1A2B0" stroke-width="2" stroke-linecap="round" stroke-linejoin="round"/>
</svg>
