<svg width="18" height="18" viewBox="0 0 18 18" fill="none" xmlns="http://www.w3.org/2000/svg">
<path d="M1.5 9H3.75" stroke="white" stroke-linecap="round" stroke-linejoin="round"/>
<path d="M14.25 9H16.5" stroke="white" stroke-linecap="round" stroke-linejoin="round"/>
<path d="M9 1.5V3.75" stroke="white" stroke-linecap="round" stroke-linejoin="round"/>
<path d="M9 14.25V16.5" stroke="white" stroke-linecap="round" stroke-linejoin="round"/>
<path d="M9 14.25C11.8995 14.25 14.25 11.8995 14.25 9C14.25 6.10051 11.8995 3.75 9 3.75C6.10051 3.75 3.75 6.10051 3.75 9C3.75 11.8995 6.10051 14.25 9 14.25Z" stroke="white" stroke-linecap="round" stroke-linejoin="round"/>
<path d="M9 11.25C10.2426 11.25 11.25 10.2426 11.25 9C11.25 7.75736 10.2426 6.75 9 6.75C7.75736 6.75 6.75 7.75736 6.75 9C6.75 10.2426 7.75736 11.25 9 11.25Z" stroke="white" stroke-linecap="round" stroke-linejoin="round"/>
</svg>
