<svg width="19" height="19" viewBox="0 0 19 19" fill="none" xmlns="http://www.w3.org/2000/svg">
<path d="M15.0417 8.70825H3.95833C3.08388 8.70825 2.375 9.41713 2.375 10.2916V15.8333C2.375 16.7077 3.08388 17.4166 3.95833 17.4166H15.0417C15.9161 17.4166 16.625 16.7077 16.625 15.8333V10.2916C16.625 9.41713 15.9161 8.70825 15.0417 8.70825Z" stroke="#9E9E9E" stroke-linecap="round" stroke-linejoin="round"/>
<path d="M5.54169 8.70825V5.54159C5.54169 4.49177 5.95872 3.48495 6.70106 2.74262C7.44339 2.00029 8.4502 1.58325 9.50002 1.58325C10.5498 1.58325 11.5567 2.00029 12.299 2.74262C13.0413 3.48495 13.4584 4.49177 13.4584 5.54159V8.70825" stroke="#9E9E9E" stroke-linecap="round" stroke-linejoin="round"/>
</svg>
